# Blender 3.4.1
# www.blender.org
mtllib mesh2.mtl
o Cube
v 2.758702 -3.429087 5.966969
v 2.758702 2.828759 6.164839
v 2.758702 -3.429087 0.570978
v 2.758702 2.828759 0.768848
v 2.758702 -3.429087 -8.249691
v 8.995496 -3.429087 5.966969
v 8.995496 2.828759 6.164839
v 8.995496 -3.429087 0.570978
v 8.995496 2.828759 0.768848
v 8.995496 -3.429087 -8.249691
v 2.758702 2.828759 6.164839
v 2.758702 2.828759 0.768848
v 2.758702 2.828759 0.768848
v 2.758702 -3.429087 0.570978
v 2.758702 -3.429087 5.966969
v 2.758702 2.828759 6.164839
v -4.241298 2.828759 0.768848
v -4.241298 2.828759 6.164839
v 15.995497 2.828759 6.164839
v 15.995497 2.828759 0.768848
v 8.995496 2.828759 -11.948370
v 2.758702 2.828759 -11.948370
v -4.241298 2.828759 -11.948370
v 15.995497 2.828759 -11.948370
v 8.995496 1.998306 0.768848
v 8.995496 1.998306 6.164839
v 2.758702 1.998306 0.768848
v 2.758702 1.998306 6.164839
v -4.241298 1.998306 0.768848
v -4.241298 1.998306 6.164839
v 15.995497 1.998306 0.768848
v 15.995497 1.998306 6.164839
v -4.241298 1.998306 -11.948370
v 2.758702 1.998306 -11.948370
v 15.995497 1.998306 -11.948370
v 8.995496 1.998306 -11.948370
v 2.758702 2.828759 6.164839
v 2.758702 -3.429087 5.966969
v 8.995496 2.828759 6.164839
v 8.995496 -3.429087 5.966969
v 2.758702 2.828759 6.164839
v -4.241298 2.828759 6.164839
v 15.995497 2.828759 6.164839
v 2.758702 1.998306 6.164839
v -4.241298 1.998306 6.164839
v 8.995496 1.998306 6.164839
v 15.995497 1.998306 6.164839
v 2.758702 2.828759 10.498173
v 2.758702 -3.429087 10.300304
v 8.995496 2.828759 10.498173
v 8.995496 -3.429087 10.300304
v 2.758702 2.828759 10.498173
v -4.241298 2.828759 10.498173
v 15.995497 2.828759 10.498173
v 2.758702 1.998306 10.498173
v -4.241298 1.998306 10.498173
v 8.995496 1.998306 10.498173
v 15.995497 1.998306 10.498173
vn -0.0000 -1.0000 -0.0000
vn -0.0000 1.0000 -0.0000
vn -1.0000 -0.0000 -0.0000
vn 1.0000 -0.0000 -0.0000
vn -0.0000 0.8216 -0.5701
vn -0.0000 -0.0000 -1.0000
vn -0.0000 -0.0316 0.9995
vn -0.0000 -0.0000 1.0000
vt 0.375000 0.750000
vt 0.625000 0.750000
vt 0.375000 0.500000
vt 0.625000 0.500000
vt 0.000000 0.000000
vt 0.000000 0.000000
vt 0.375000 0.500000
vt 0.375000 0.750000
vt 0.000000 0.000000
vt 0.625000 0.750000
vt 0.375000 0.500000
vt 0.625000 0.500000
vt 0.000000 0.000000
vt 0.000000 0.000000
vt 0.375000 0.500000
vt 0.625000 0.750000
vt 0.625000 0.500000
vt 0.625000 0.500000
vt 0.000000 0.000000
vt 0.375000 0.500000
vt 0.375000 0.750000
vt 0.625000 0.750000
vt 0.000000 0.000000
vt 0.000000 0.000000
vt 0.000000 0.000000
vt 0.000000 0.000000
vt 0.000000 0.000000
vt 0.000000 0.000000
vt 0.000000 0.000000
vt 0.000000 0.000000
vt 0.000000 0.000000
vt 0.625000 0.500000
vt 0.000000 0.000000
vt 0.625000 0.750000
vt 0.000000 0.000000
vt 0.625000 0.500000
vt 0.625000 0.750000
vt 0.625000 0.500000
vt 0.000000 0.000000
vt 0.000000 0.000000
vt 0.625000 0.750000
vt 0.000000 0.000000
vt 0.625000 0.500000
vt 0.000000 0.000000
vt 0.625000 0.750000
vt 0.625000 0.500000
vt 0.000000 0.000000
vt 0.000000 0.000000
vt 0.625000 0.500000
vt 0.625000 0.500000
vt 0.000000 0.000000
vt 0.625000 0.500000
vt 0.000000 0.000000
vt 0.625000 0.750000
vt 0.375000 0.750000
vt 0.000000 0.000000
vt 0.625000 0.750000
vt 0.375000 0.750000
vt 0.625000 0.750000
vt 0.000000 0.000000
vt 0.000000 0.000000
vt 0.000000 0.000000
vt 0.625000 0.750000
vt 0.000000 0.000000
vt 0.625000 0.750000
vt 0.625000 0.750000
vt 0.000000 0.000000
vt 0.625000 0.750000
vt 0.625000 0.750000
vt 0.375000 0.750000
vt 0.000000 0.000000
vt 0.625000 0.750000
vt 0.375000 0.750000
vt 0.625000 0.750000
vt 0.000000 0.000000
vt 0.000000 0.000000
vt 0.000000 0.000000
vt 0.000000 0.000000
vt 0.625000 0.750000
vt 0.000000 0.000000
vt 0.625000 0.750000
vt 0.000000 0.000000
vt 0.625000 0.750000
vt 0.000000 0.000000
vt 0.625000 0.750000
s 0
f 1/1/1 3/3/1 8/11/1 6/8/1
f 2/2/2 4/4/2 13/18/2 16/22/2
f 3/3/3 4/5/3 5/7/3
f 28/37/2 16/22/2 41/59/2 44/63/2
f 8/11/4 9/12/4 7/10/4 6/8/4
f 8/11/4 10/15/4 9/12/4
f 5/6/5 4/5/5 9/13/5 10/14/5
f 4/4/2 2/2/2 7/10/2 9/12/2
f 3/3/1 5/7/1 10/15/1 8/11/1
f 2/2/2 4/4/2 12/17/2 11/16/2
f 14/20/3 15/21/3 16/22/3 13/18/3
f 4/5/2 3/3/2 14/20/2 13/19/2
f 1/1/2 2/2/2 16/22/2 15/21/2
f 3/3/2 1/1/2 15/21/2 14/20/2
f 22/29/4 13/19/4 27/35/4 34/48/4
f 19/26/4 32/44/4 31/42/4 20/27/4
f 23/30/6 22/29/6 34/48/6 33/47/6
f 20/27/4 31/42/4 35/51/4 24/31/4
f 27/36/1 28/37/1 30/41/1 29/38/1
f 25/32/1 31/43/1 32/45/1 26/34/1
f 25/32/1 36/52/1 35/50/1 31/43/1
f 27/36/1 29/38/1 33/46/1 34/49/1
f 18/25/3 17/24/3 29/39/3 30/40/3
f 24/31/6 35/51/6 36/53/6 21/28/6
f 9/12/3 25/32/3 26/34/3 7/10/3
f 17/24/3 23/30/3 33/47/3 29/39/3
f 13/18/4 16/22/4 28/37/4 27/36/4
f 21/28/3 36/53/3 25/33/3 9/13/3
f 19/26/2 43/62/2 47/67/2 32/44/2
f 18/25/2 30/40/2 45/64/2 42/61/2
f 24/31/2 21/28/2 9/13/2 20/27/2
f 23/30/2 17/24/2 13/19/2 22/29/2
f 13/19/2 17/24/2 18/25/2 16/23/2
f 9/13/2 7/9/2 19/26/2 20/27/2
f 40/58/4 39/57/4 50/72/4 51/73/4
f 44/63/4 41/59/4 52/74/4 55/79/4
f 41/60/2 42/61/2 53/76/2 52/75/2
f 1/1/2 6/8/2 40/58/2 38/55/2
f 6/8/2 7/10/2 39/57/2 40/58/2
f 7/9/2 39/56/2 43/62/2 19/26/2
f 32/45/2 47/68/2 46/66/2 26/34/2
f 7/10/2 2/2/2 37/54/2 39/57/2
f 16/23/2 18/25/2 42/61/2 41/60/2
f 2/2/2 1/1/2 38/55/2 37/54/2
f 26/34/2 46/66/2 39/57/2 7/10/2
f 30/41/2 28/37/2 44/63/2 45/65/2
f 48/69/7 49/70/7 51/73/7 50/72/7
f 50/71/8 57/82/8 58/84/8 54/77/8
f 52/75/8 53/76/8 56/80/8 55/78/8
f 43/62/4 54/77/4 58/84/4 47/67/4
f 39/56/2 50/71/2 54/77/2 43/62/2
f 38/55/1 40/58/1 51/73/1 49/70/1
f 42/61/3 45/64/3 56/80/3 53/76/3
f 45/65/1 44/63/1 55/79/1 56/81/1
f 39/57/2 37/54/2 48/69/2 50/72/2
f 46/66/3 57/83/3 50/72/3 39/57/3
f 37/54/3 38/55/3 49/70/3 48/69/3
f 47/68/1 58/85/1 57/83/1 46/66/1
