# Blender 3.4.1
# www.blender.org
mtllib medkit.mtl
o Cube
v 1.175339 2.197762 0.418046
v -0.271629 2.212787 -0.375781
v 1.520220 1.980809 0.418046
v 1.419207 2.134218 0.418046
v 1.520220 1.980809 -0.418046
v 0.271629 2.212787 -0.375781
v 1.175339 2.197762 -0.418046
v 1.419207 2.134218 -0.418046
v -1.520220 1.980809 0.418046
v -1.175339 2.197762 0.418046
v -1.419207 2.134218 0.418046
v -1.175339 2.197762 -0.418046
v -1.520220 1.980809 -0.418046
v -1.419207 2.134218 -0.418046
v 1.520220 0.399402 0.418046
v 1.338544 0.285116 0.418046
v 1.338544 0.285116 -0.418046
v 1.520220 0.399402 -0.418046
v -1.338544 0.285116 0.418046
v -1.520220 0.399402 0.418046
v -1.520220 0.399402 -0.418046
v -1.338544 0.285116 -0.418046
v -0.647211 2.197762 0.418046
v 0.666934 2.197762 0.418046
v -0.647211 2.197762 -0.418046
v 0.666934 2.197762 -0.418046
v -0.647211 2.283111 0.418046
v -0.579808 2.325512 0.418046
v 0.599532 2.325512 0.418046
v 0.666934 2.283111 0.418046
v -0.579808 2.325512 -0.418046
v -0.647211 2.283111 -0.418046
v 0.666934 2.283111 -0.418046
v 0.599532 2.325512 -0.418046
v 0.271629 2.212787 -0.418046
v -0.271629 2.212787 -0.418046
v 0.271629 2.325512 -0.418046
v -0.271629 2.325512 -0.418046
v 0.271629 2.325512 -0.375781
v -0.271629 2.325512 -0.375781
vn -0.0000 1.0000 -0.0000
vn -0.0000 -0.0000 -1.0000
vn -0.0000 -0.0000 1.0000
vn -1.0000 -0.0000 -0.0000
vn 0.2521 0.9677 -0.0000
vn 0.8352 0.5499 -0.0000
vn -0.2521 0.9677 -0.0000
vn -0.8352 0.5499 -0.0000
vn 1.0000 -0.0000 -0.0000
vn 0.5325 -0.8464 -0.0000
vn -0.5325 -0.8464 -0.0000
vn -0.0000 -1.0000 -0.0000
vn -0.5325 0.8464 -0.0000
vn 0.5325 0.8464 -0.0000
vt 0.625000 0.971642
vt 0.846642 0.750000
vt 0.375000 0.000000
vt 0.375000 1.000000
vt 0.125000 0.750000
vt 0.596642 1.000000
vt 0.596642 0.000000
vt 0.616694 0.991694
vt 0.875000 0.750000
vt 0.625000 0.000000
vt 0.596642 0.250000
vt 0.375000 0.750000
vt 0.625000 0.278358
vt 0.846642 0.500000
vt 0.616694 0.258306
vt 0.875000 0.500000
vt 0.625000 0.250000
vt 0.596642 0.750000
vt 0.625000 0.778358
vt 0.653358 0.750000
vt 0.616694 0.758306
vt 0.625000 0.750000
vt 0.625000 0.471642
vt 0.653358 0.500000
vt 0.596642 0.500000
vt 0.616694 0.491694
vt 0.625000 0.500000
vt 0.389938 1.000000
vt 0.389938 0.000000
vt 0.125000 0.750000
vt 0.375000 0.985062
vt 0.139938 0.750000
vt 0.375000 0.264938
vt 0.139938 0.500000
vt 0.389938 0.250000
vt 0.125000 0.500000
vt 0.375000 0.764938
vt 0.360062 0.750000
vt 0.389938 0.750000
vt 0.389938 0.500000
vt 0.375000 0.485062
vt 0.360062 0.500000
vt 0.717786 0.750000
vt 0.625000 0.842786
vt 0.782214 0.750000
vt 0.625000 0.907214
vt 0.625000 0.407214
vt 0.717786 0.500000
vt 0.625000 0.342786
vt 0.782214 0.500000
vt 0.717786 0.750000
vt 0.625000 0.842786
vt 0.721090 0.750000
vt 0.625000 0.846090
vt 0.778910 0.750000
vt 0.625000 0.903910
vt 0.782214 0.750000
vt 0.625000 0.907214
vt 0.625000 0.403910
vt 0.721090 0.500000
vt 0.625000 0.407214
vt 0.717786 0.500000
vt 0.625000 0.342786
vt 0.782214 0.500000
vt 0.625000 0.346090
vt 0.778910 0.500000
vt 0.625000 0.362166
vt 0.375000 0.730550
vt 0.625000 0.388801
vt 0.375000 0.019450
vt 0.125000 0.730550
vt 0.625000 0.362166
vt 0.762833 0.500000
vt 0.426875 0.730550
vt 0.625000 0.388801
vt 0.736199 0.500000
vt 0.426875 0.019450
vt 0.762834 0.512638
vt 0.426875 0.750000
vt 0.736199 0.512638
vt 0.426875 0.000000
vt 0.426875 1.000000
s 0
usemtl Material.004
f 26/50/1 24/45/1 1/2/1 7/14/1
f 25/47/2 26/49/2 7/13/2 8/15/2 5/11/2 18/35/2 17/33/2 22/41/2 21/40/2 13/25/2 14/26/2 12/23/2
f 24/46/3 23/44/3 10/19/3 11/21/3 9/18/3 20/39/3 19/37/3 16/31/3 15/28/3 3/6/3 4/8/3 1/1/3
f 21/40/4 20/39/4 9/18/4 13/25/4
f 1/2/5 4/9/5 8/16/5 7/14/5
f 4/10/6 3/7/6 5/11/6 8/17/6
f 12/24/7 14/27/7 11/22/7 10/20/7
f 14/27/8 13/25/8 9/18/8 11/22/8
f 15/29/9 18/35/9 5/11/9 3/7/9
f 17/34/10 18/36/10 15/30/10 16/32/10
f 19/38/11 20/39/11 21/40/11 22/42/11
f 17/34/12 16/32/12 19/38/12 22/42/12
f 12/24/1 10/20/1 23/43/1 25/48/1
f 38/75/2 36/69/2 35/67/2 37/72/2 34/65/2 33/63/2 26/49/2 25/47/2 32/61/2 31/59/2
f 23/43/4 27/51/4 32/62/4 25/48/4
f 39/78/1 40/80/1 38/76/1 31/60/1 28/53/1 29/55/1 34/66/1 37/73/1
f 26/50/9 33/64/9 30/57/9 24/45/9
f 31/60/13 32/62/13 27/51/13 28/53/13
f 33/64/14 34/66/14 29/55/14 30/57/14
f 30/58/3 29/56/3 28/54/3 27/52/3 23/44/3 24/46/3
usemtl 
f 36/70/9 38/77/9 40/81/9 2/3/9
f 39/79/4 37/74/4 35/68/4 6/12/4
f 2/4/2 40/82/2 39/79/2 6/12/2
f 35/68/1 36/71/1 2/5/1 6/12/1
o Plane.004
o Plane.005
v -0.272220 0.606959 -0.605735
v 0.635181 0.969919 -0.605735
v -0.635181 1.514360 -0.605735
v 0.272220 1.877321 -0.605735
v -0.635181 1.332880 -0.605735
v -0.635181 0.969919 -0.478594
v -0.635181 1.151399 -0.478594
v -0.635181 1.332880 -0.478594
v -0.635181 1.514360 -0.478594
v -0.090740 0.606959 -0.605735
v 0.090740 0.606959 -0.605735
v -0.272220 1.877321 -0.478594
v -0.090740 1.877321 -0.478594
v 0.090740 1.877321 -0.478594
v 0.272220 1.877321 -0.478594
v 0.635181 1.151399 -0.605735
v 0.635181 1.332880 -0.605735
v 0.635181 1.514360 -0.478594
v 0.635181 1.332880 -0.478594
v 0.635181 1.151399 -0.478594
v 0.635181 0.969919 -0.478594
v 0.090740 1.877321 -0.605735
v -0.090740 1.877321 -0.605735
v 0.272220 0.606959 -0.478595
v 0.090740 0.606959 -0.478595
v -0.090740 0.606959 -0.478595
v -0.272220 0.606959 -0.478595
v -0.635181 1.151399 -0.605735
v 0.272220 0.606959 -0.605735
v -0.453701 1.514360 -0.478594
v -0.453701 1.332880 -0.478594
v -0.453701 1.151399 -0.478594
v -0.453701 0.969919 -0.478594
v -0.635181 0.969919 -0.605735
v -0.272220 1.695840 -0.478595
v -0.272220 1.514360 -0.478594
v -0.272220 1.332880 -0.478594
v -0.272220 1.151399 -0.478594
v -0.272220 0.969919 -0.478594
v -0.272220 0.788439 -0.478595
v -0.090740 1.695840 -0.478595
v -0.090740 1.514360 -0.478594
v -0.090740 1.332880 -0.478594
v -0.090740 1.151399 -0.478594
v -0.090740 0.969919 -0.478594
v -0.090740 0.788439 -0.478595
v 0.090740 1.695840 -0.478595
v 0.090740 1.514360 -0.478594
v 0.090740 1.332880 -0.478594
v 0.090740 1.151399 -0.478594
v 0.090740 0.969919 -0.478594
v 0.090740 0.788439 -0.478595
v 0.272220 1.695840 -0.478595
v 0.272220 1.514360 -0.478594
v 0.272220 1.332880 -0.478594
v 0.272220 1.151399 -0.478594
v 0.272220 0.969919 -0.478594
v 0.272220 0.788439 -0.478595
v 0.635181 1.514360 -0.605735
v 0.453701 1.514360 -0.478594
v 0.453701 1.332880 -0.478594
v 0.453701 1.151399 -0.478594
v 0.453701 0.969919 -0.478594
v -0.272220 1.877321 -0.605735
v -0.453701 1.514360 -0.605735
v -0.453701 1.332880 -0.605735
v -0.453701 1.151399 -0.605735
v -0.453701 0.969919 -0.605735
v -0.272220 0.788439 -0.605735
v -0.272220 1.695840 -0.605735
v -0.272220 1.514360 -0.605735
v -0.272220 1.332880 -0.605735
v -0.272220 1.151399 -0.605735
v -0.272220 0.969919 -0.605735
v -0.090740 0.788439 -0.605735
v -0.090740 1.695840 -0.605735
v -0.090740 1.514360 -0.605735
v -0.090740 1.332880 -0.605735
v -0.090740 1.151399 -0.605735
v -0.090740 0.969919 -0.605735
v 0.090740 0.788439 -0.605735
v 0.090740 1.695840 -0.605735
v 0.090740 1.514360 -0.605735
v 0.090740 1.332880 -0.605735
v 0.090740 1.151399 -0.605735
v 0.090740 0.969919 -0.605735
v 0.272220 0.788439 -0.605735
v 0.272220 1.695840 -0.605735
v 0.272220 1.514360 -0.605735
v 0.272220 1.332880 -0.605735
v 0.272220 1.151399 -0.605735
v 0.272220 0.969919 -0.605735
v 0.453701 1.514360 -0.605735
v 0.453701 1.332880 -0.605735
v 0.453701 1.151399 -0.605735
v 0.453701 0.969919 -0.605735
vn -0.0000 -0.0000 -1.0000
vn -0.0000 -0.0000 1.0000
vn -0.0000 1.0000 -0.0000
vn -0.0000 -1.0000 -0.0000
vn -1.0000 -0.0000 -0.0000
vn 1.0000 -0.0000 -0.0000
vt 0.285714 1.000000
vt 1.000000 0.714286
vt 0.000000 0.285714
vt 0.714286 0.000000
vt 0.000000 0.428571
vt 0.000000 0.714286
vt 0.000000 0.571429
vt 0.000000 0.428571
vt 0.000000 0.285714
vt 0.428571 1.000000
vt 0.571429 1.000000
vt 0.285714 0.000000
vt 0.428571 0.000000
vt 0.571429 0.000000
vt 0.714286 0.000000
vt 1.000000 0.571429
vt 1.000000 0.428571
vt 1.000000 0.285714
vt 1.000000 0.428571
vt 1.000000 0.571429
vt 1.000000 0.714286
vt 0.571429 0.000000
vt 0.428571 0.000000
vt 0.714286 1.000000
vt 0.571429 1.000000
vt 0.428571 1.000000
vt 0.285714 1.000000
vt 0.000000 0.571429
vt 0.714286 1.000000
vt 0.142857 0.285714
vt 0.142857 0.428571
vt 0.142857 0.571429
vt 0.142857 0.714286
vt 0.000000 0.714286
vt 0.285714 0.142857
vt 0.285714 0.285714
vt 0.285714 0.428571
vt 0.285714 0.571429
vt 0.285714 0.714286
vt 0.285714 0.857143
vt 0.428571 0.142857
vt 0.428571 0.285714
vt 0.428571 0.428571
vt 0.428571 0.571429
vt 0.428571 0.714286
vt 0.428571 0.857143
vt 0.571429 0.142857
vt 0.571429 0.285714
vt 0.571429 0.428571
vt 0.571429 0.571429
vt 0.571429 0.714286
vt 0.571429 0.857143
vt 0.714286 0.142857
vt 0.714286 0.285714
vt 0.714286 0.428571
vt 0.714286 0.571429
vt 0.714286 0.714286
vt 0.714286 0.857143
vt 1.000000 0.285714
vt 0.857143 0.285714
vt 0.857143 0.428571
vt 0.857143 0.571429
vt 0.857143 0.714286
vt 0.285714 0.000000
vt 0.142857 0.285714
vt 0.142857 0.428571
vt 0.142857 0.571429
vt 0.142857 0.714286
vt 0.285714 0.857143
vt 0.285714 0.142857
vt 0.285714 0.285714
vt 0.285714 0.428571
vt 0.285714 0.571429
vt 0.285714 0.714286
vt 0.428571 0.857143
vt 0.428571 0.142857
vt 0.428571 0.285714
vt 0.428571 0.428571
vt 0.428571 0.571429
vt 0.428571 0.714286
vt 0.571429 0.857143
vt 0.571429 0.142857
vt 0.571429 0.285714
vt 0.571429 0.428571
vt 0.571429 0.571429
vt 0.571429 0.714286
vt 0.714286 0.857143
vt 0.714286 0.142857
vt 0.714286 0.285714
vt 0.714286 0.428571
vt 0.714286 0.571429
vt 0.714286 0.714286
vt 0.857143 0.285714
vt 0.857143 0.428571
vt 0.857143 0.571429
vt 0.857143 0.714286
s 0
usemtl Material.005
f 106/148/15 112/154/15 113/155/15 107/149/15
f 43/85/15 105/147/15 106/148/15 45/87/15
f 121/163/15 127/169/15 69/111/15 51/93/15
f 80/122/16 67/109/16 66/108/16 86/128/16
f 86/128/16 66/108/16 65/107/16 92/134/16
f 92/134/16 65/107/16 64/106/16 98/140/16
f 105/147/15 111/153/15 112/154/15 106/148/15
f 63/105/15 62/104/15 122/164/15 116/158/15
f 114/156/15 120/162/15 115/157/15 109/151/15
f 49/91/16 48/90/16 71/113/16 70/112/16
f 48/90/16 47/89/16 72/114/16 71/113/16
f 47/89/16 46/88/16 73/115/16 72/114/16
f 115/157/15 121/163/15 51/93/15 50/92/15
f 113/155/15 119/161/15 120/162/15 114/156/15
f 112/154/15 118/160/15 119/161/15 113/155/15
f 70/112/16 71/113/16 77/119/16 76/118/16
f 71/113/16 72/114/16 78/120/16 77/119/16
f 72/114/16 73/115/16 79/121/16 78/120/16
f 109/151/15 115/157/15 50/92/15 41/83/15
f 52/94/16 75/117/16 81/123/16 53/95/16
f 75/117/16 76/118/16 82/124/16 81/123/16
f 76/118/16 77/119/16 83/125/16 82/124/16
f 77/119/16 78/120/16 84/126/16 83/125/16
f 78/120/16 79/121/16 85/127/16 84/126/16
f 79/121/16 80/122/16 86/128/16 85/127/16
f 53/95/16 81/123/16 87/129/16 54/96/16
f 81/123/16 82/124/16 88/130/16 87/129/16
f 82/124/16 83/125/16 89/131/16 88/130/16
f 83/125/16 84/126/16 90/132/16 89/131/16
f 84/126/16 85/127/16 91/133/16 90/132/16
f 85/127/16 86/128/16 92/134/16 91/133/16
f 54/96/16 87/129/16 93/135/16 55/97/16
f 87/129/16 88/130/16 94/136/16 93/135/16
f 88/130/16 89/131/16 95/137/16 94/136/16
f 89/131/16 90/132/16 96/138/16 95/137/16
f 90/132/16 91/133/16 97/139/16 96/138/16
f 91/133/16 92/134/16 98/140/16 97/139/16
f 111/153/15 117/159/15 118/160/15 112/154/15
f 110/152/15 116/158/15 117/159/15 111/153/15
f 94/136/16 95/137/16 101/143/16 100/142/16
f 95/137/16 96/138/16 102/144/16 101/143/16
f 96/138/16 97/139/16 103/145/16 102/144/16
f 68/110/15 107/149/15 108/150/15 74/116/15
f 104/146/15 63/105/15 116/158/15 110/152/15
f 107/149/15 113/155/15 114/156/15 108/150/15
f 100/142/16 101/143/16 59/101/16 58/100/16
f 101/143/16 102/144/16 60/102/16 59/101/16
f 102/144/16 103/145/16 61/103/16 60/102/16
f 45/87/15 106/148/15 107/149/15 68/110/15
f 116/158/15 122/164/15 123/165/15 117/159/15
f 117/159/15 123/165/15 124/166/15 118/160/15
f 118/160/15 124/166/15 125/167/15 119/161/15
f 119/161/15 125/167/15 126/168/15 120/162/15
f 120/162/15 126/168/15 121/163/15 115/157/15
f 62/104/15 44/86/15 128/170/15 122/164/15
f 122/164/15 128/170/15 129/171/15 123/165/15
f 123/165/15 129/171/15 130/172/15 124/166/15
f 124/166/15 130/172/15 131/173/15 125/167/15
f 125/167/15 131/173/15 132/174/15 126/168/15
f 126/168/15 132/174/15 127/169/15 121/163/15
f 129/171/15 133/175/15 134/176/15 130/172/15
f 130/172/15 134/176/15 135/177/15 131/173/15
f 131/173/15 135/177/15 136/178/15 132/174/15
f 133/175/15 99/141/15 57/99/15 134/176/15
f 134/176/15 57/99/15 56/98/15 135/177/15
f 135/177/15 56/98/15 42/84/15 136/178/15
f 52/94/17 53/95/17 63/105/17 104/146/17
f 66/108/18 67/109/18 41/83/18 50/92/18
f 79/121/18 73/115/18 108/150/18 114/156/18
f 53/95/17 54/96/17 62/104/17 63/105/17
f 100/142/17 58/100/17 99/141/17 133/175/17
f 54/96/17 55/97/17 44/86/17 62/104/17
f 80/122/19 79/121/19 114/156/19 109/151/19
f 98/140/20 64/106/20 69/111/20 127/169/20
f 61/103/18 103/145/18 136/178/18 42/84/18
f 55/97/20 93/135/20 128/170/20 44/86/20
f 49/91/17 70/112/17 105/147/17 43/85/17
f 93/135/20 94/136/20 129/171/20 128/170/20
f 58/100/20 59/101/20 57/99/20 99/141/20
f 59/101/20 60/102/20 56/98/20 57/99/20
f 46/88/19 47/89/19 68/110/19 74/116/19
f 60/102/20 61/103/20 42/84/20 56/98/20
f 73/115/18 46/88/18 74/116/18 108/150/18
f 47/89/19 48/90/19 45/87/19 68/110/19
f 94/136/17 100/142/17 133/175/17 129/171/17
f 48/90/19 49/91/19 43/85/19 45/87/19
f 67/109/19 80/122/19 109/151/19 41/83/19
f 97/139/20 98/140/20 127/169/20 132/174/20
f 75/117/19 52/94/19 104/146/19 110/152/19
f 70/112/17 76/118/17 111/153/17 105/147/17
f 103/145/18 97/139/18 132/174/18 136/178/18
f 76/118/19 75/117/19 110/152/19 111/153/19
f 64/106/18 65/107/18 51/93/18 69/111/18
f 65/107/18 66/108/18 50/92/18 51/93/18
